<svg id="Layer_1" data-name="Layer 1" xmlns="http://www.w3.org/2000/svg" viewBox="0 0 1200 900"><defs><style>.cls-1{fill:#fff;}</style></defs><rect class="cls-1" x="7.5" y="7.5" width="1185" height="885" rx="84.16"/><path d="M1148.34,65A76.75,76.75,0,0,1,1225,141.66V858.34A76.75,76.75,0,0,1,1148.34,935H131.66A76.75,76.75,0,0,1,55,858.34V141.66A76.75,76.75,0,0,1,131.66,65H1148.34m0-15H131.66A91.66,91.66,0,0,0,40,141.66V858.34A91.66,91.66,0,0,0,131.66,950H1148.34A91.66,91.66,0,0,0,1240,858.34V141.66A91.66,91.66,0,0,0,1148.34,50Z" transform="translate(-40 -50)"/></svg>